<!-- MyCardArchive Phase 25 — scan feature. -->
<svg xmlns="http://www.w3.org/2000/svg" viewBox="0 0 640 400" fill="none" role="img" aria-labelledby="msf-t"><title id="msf-t">Scan feature artwork</title>
  <defs>
    <linearGradient id="msf-bg" x1="0" y1="40" x2="640" y2="360" gradientUnits="userSpaceOnUse">
      <stop stop-color="#18181b"/>
      <stop offset="1" stop-color="#09090b"/>
    </linearGradient>
    <linearGradient id="msf-line" x1="208" y1="188" x2="432" y2="188" gradientUnits="userSpaceOnUse">
      <stop stop-color="#34d399" stop-opacity="0.3"/>
      <stop offset="0.5" stop-color="#6ee7b7" stop-opacity="0.95"/>
      <stop offset="1" stop-color="#34d399" stop-opacity="0.3"/>
    </linearGradient>
  </defs>
  <rect width="640" height="400" rx="32" fill="url(#msf-bg)"/>
  <rect x="40" y="40" width="560" height="320" rx="28" fill="none" stroke="#3f3f46" stroke-width="1.5" stroke-opacity="0.55"/>
  <rect x="176" y="64" width="288" height="272" rx="36" fill="#27272a" stroke="#52525b" stroke-width="2.5"/>
  <rect x="196" y="88" width="248" height="200" rx="20" fill="#09090b" stroke="#3f3f46"/>
  <rect x="220" y="112" width="200" height="152" rx="18" fill="#3f3f46" stroke="#71717a" transform="rotate(-3 320 188)"/>
  <rect x="248" y="140" width="120" height="12" rx="6" fill="#10b981" fill-opacity="0.35"/>
  <rect x="248" y="164" width="80" height="8" rx="4" fill="#52525b"/>
  <rect x="208" y="186" width="224" height="6" rx="3" fill="url(#msf-line)"/>
  <path d="M208 96h-16v16M208 288h-16v-16M432 96h16v16M432 288h16v-16" stroke="#10b981" stroke-width="3" stroke-linecap="round" opacity="0.65"/>
  <circle cx="320" cy="356" r="5" fill="#fbbf24" fill-opacity="0.45"/>
</svg>
