<!-- Replace with final branded icon -->
<svg xmlns="http://www.w3.org/2000/svg" width="24" height="24" viewBox="0 0 24 24" fill="none" aria-hidden="true"><path d="M12 15a3 3 0 100-6 3 3 0 000 6zM19.4 15a1.7 1.7 0 00.4-1l1.5-1.2a.3.3 0 000-.5l-1.4-2.4a.3.3 0 00-.4-.1l-1.7.7a7 7 0 00-1.7-1l-.3-1.8a.3.3 0 00-.3-.3h-2.8a.3.3 0 00-.3.3l-.3 1.8c-.6.2-1.2.5-1.7 1l-1.7-.7a.3.3 0 00-.4.1l-1.4 2.4a.3.3 0 000 .5l1.5 1.2c0 .3-.1.7-.1 1s0 .7.1 1l-1.5 1.2a.3.3 0 000 .5l1.4 2.4c.1.2.3.2.4.1l1.7-.7c.5.5 1.1.8 1.7 1l.3 1.8c0 .2.2.3.3.3h2.8c.2 0 .3-.1.3-.3l.3-1.8c.6-.2 1.2-.5 1.7-1l1.7.7c.2.1.4 0 .4-.1l1.4-2.4a.3.3 0 000-.5l-1.5-1.2z" fill="none" stroke="currentColor" stroke-width="1.75" stroke-linecap="round" stroke-linejoin="round"/></svg>