<!-- MyCardArchive Phase 27 — add binder -->
<svg xmlns="http://www.w3.org/2000/svg" viewBox="0 0 520 280" fill="none" role="img" aria-labelledby="ob-binder-t">
  <title id="ob-binder-t">Add your first binder</title>
  <defs>
    <linearGradient id="ob-b-bg" x1="32" y1="0" x2="488" y2="280" gradientUnits="userSpaceOnUse">
      <stop stop-color="#09090b"/>
      <stop offset="1" stop-color="#18181b"/>
    </linearGradient>
  </defs>
  <rect width="520" height="280" rx="36" fill="url(#ob-b-bg)"/>
  <ellipse cx="260" cy="244" rx="200" ry="24" fill="#052e16" fill-opacity="0.25"/>
  <!-- Binder -->
  <path d="M152 64h176a20 20 0 0120 20v132a20 20 0 01-20 20H152a20 20 0 01-20-20V84a20 20 0 0120-20Z" fill="#18181b" stroke="#3f3f46" stroke-width="2"/>
  <rect x="140" y="64" width="28" height="172" rx="12" fill="#27272a" stroke="#52525b" stroke-width="1.75"/>
  <circle cx="154" cy="106" r="9" fill="#047857" stroke="#34d399" stroke-width="1.75"/>
  <circle cx="154" cy="150" r="9" fill="#047857" stroke="#34d399" stroke-width="1.75"/>
  <circle cx="154" cy="194" r="9" fill="#047857" stroke="#34d399" stroke-width="1.75"/>
  <rect x="180" y="96" width="160" height="10" rx="5" fill="#3f3f46"/>
  <rect x="180" y="118" width="120" height="10" rx="5" fill="#52525b" fill-opacity="0.75"/>
  <rect x="180" y="140" width="140" height="10" rx="5" fill="#52525b" fill-opacity="0.55"/>
  <!-- Plus badge -->
  <circle cx="360" cy="80" r="32" fill="#064e3b" fill-opacity="0.55" stroke="#34d399" stroke-width="2.5"/>
  <path d="M360 64v32M344 80h32" stroke="#6ee7b7" stroke-width="4" stroke-linecap="round"/>
  <!-- Accent -->
  <circle cx="400" cy="200" r="6" fill="#fbbf24" fill-opacity="0.55"/>
</svg>
